HIERARCHY
ROOT Hips
{
    OFFSET 0.000000 0.000000 0.000000
    CHANNELS 6 Xposition Yposition Zposition Zrotation Xrotation Yrotation
    JOINT Spine
    {
        OFFSET -0.000000 7.246840 0.000000
        CHANNELS 3 Zrotation Xrotation Yrotation
        JOINT Spine1
        {
            OFFSET -0.000000 20.289354 0.000000
            CHANNELS 3 Zrotation Xrotation Yrotation
            JOINT Neck
            {
                OFFSET -0.000000 20.206032 1.836912
                CHANNELS 3 Zrotation Xrotation Yrotation
                JOINT Head
                {
                    OFFSET -0.000000 12.372654 -1.767522
                    CHANNELS 3 Zrotation Xrotation Yrotation
                    End Site
                    {
                        OFFSET -0.000000 22.094025 0.000000
                    }
                }
            }
            JOINT LeftShoulder
            {
                OFFSET 3.465871 17.201674 -0.568930
                CHANNELS 3 Zrotation Xrotation Yrotation
                JOINT LeftArm
                {
                    OFFSET 14.070313 0.000000 0.000000
                    CHANNELS 3 Zrotation Xrotation Yrotation
                    JOINT LeftForeArm
                    {
                        OFFSET 26.549477 0.000000 0.000000
                        CHANNELS 3 Zrotation Xrotation Yrotation
                        JOINT LeftHand
                        {
                            OFFSET 18.880413 0.000000 0.000000
                            CHANNELS 3 Zrotation Xrotation Yrotation
                            End Site
                            {
                                OFFSET 13.256415 0.000000 0.000000
                            }
                        }
                    }
                }
            }
            JOINT RightShoulder
            {
                OFFSET -3.526370 17.201674 -0.568930
                CHANNELS 3 Zrotation Xrotation Yrotation
                JOINT RightArm
                {
                    OFFSET -14.070313 0.000000 0.000000
                    CHANNELS 3 Zrotation Xrotation Yrotation
                    JOINT RightForeArm
                    {
                        OFFSET -26.549477 0.000000 0.000000
                        CHANNELS 3 Zrotation Xrotation Yrotation
                        JOINT RightHand
                        {
                            OFFSET -18.880413 0.000000 0.000000
                            CHANNELS 3 Zrotation Xrotation Yrotation
                            End Site
                            {
                                OFFSET -13.256415 0.000000 0.000000
                            }
                        }
                    }
                }
            }
        }
    }
    JOINT LeftUpLeg
    {
        OFFSET 8.837609 0.000000 0.000000
        CHANNELS 3 Zrotation Xrotation Yrotation
        JOINT LeftLeg
        {
            OFFSET -0.000000 -41.345005 0.000000
            CHANNELS 3 Zrotation Xrotation Yrotation
            JOINT LeftFoot
            {
                OFFSET -0.000000 -35.500874 0.000000
                CHANNELS 3 Zrotation Xrotation Yrotation
                JOINT LeftToeBase
                {
                    OFFSET -0.000000 -5.744446 13.256415
                    CHANNELS 3 Zrotation Xrotation Yrotation
                    End Site
                    {
                        OFFSET -0.000000 0.000000 3.535044
                    }
                }
            }
        }
    }
    JOINT RightUpLeg
    {
        OFFSET -8.837609 0.000000 0.000000
        CHANNELS 3 Zrotation Xrotation Yrotation
        JOINT RightLeg
        {
            OFFSET -0.000000 -41.345005 0.000000
            CHANNELS 3 Zrotation Xrotation Yrotation
            JOINT RightFoot
            {
                OFFSET -0.000000 -35.500874 0.000000
                CHANNELS 3 Zrotation Xrotation Yrotation
                JOINT RightToeBase
                {
                    OFFSET -0.000000 -5.744446 13.256415
                    CHANNELS 3 Zrotation Xrotation Yrotation
                    End Site
                    {
                        OFFSET -0.000000 0.000000 3.535044
                    }
                }
            }
        }
    }
}
MOTION
Frames:    4
Frame Time:    0.010000
13.923395    82.550491    -77.787880    2.911648    3.141761    -2.315716    -3.518751    -12.840872    -1.052505    2.229614    3.461304    -0.723880    1.710836    32.400307    -2.232203    -0.428380    -11.799943    -2.151686    19.876402    2.105135    6.555656    -38.261818    12.096888    -8.432826    7.293825    -9.009800    -11.861378    -33.467960    -8.360392    0.338554    -14.733990    0.147060    11.743462    22.750759    4.094605    7.632354    -3.155965    -7.100895    4.895531    2.449960    -6.742105    10.561934    -3.024331    6.042519    -0.760180    -2.937551    -7.680200    -1.311615    5.852218    1.573764    -0.253361    0.027468    -2.157309    -0.038962    -6.359412    1.296015    -1.530084    5.537980    0.116026    3.882513    -0.693607    -7.869083    -12.482399    -0.413725    1.320674    0.731582    
13.939601    82.551804    -77.791771    2.909956    3.147848    -2.302564    -3.514628    -12.848854    -1.063737    2.224718    3.458120    -0.735107    1.761433    32.385860    -2.234217    -0.494972    -11.780223    -2.162018    19.885792    2.110498    6.565095    -38.289692    12.055438    -8.437410    7.286957    -8.992398    -11.865429    -33.479046    -8.343948    0.340338    -14.733670    0.136981    11.748813    22.754879    4.107829    7.628006    -3.171156    -7.108434    4.884582    2.481572    -6.746176    10.572529    -3.013848    6.018370    -0.827602    -2.986149    -7.637707    -1.235005    5.894899    1.541826    -0.241907    0.048354    -2.094289    -0.068562    -6.374632    1.295202    -1.528831    5.556528    0.113808    3.822740    -0.700362    -7.862603    -12.454135    -0.420759    1.353763    0.743761    
13.953316    82.553230    -77.794197    2.901255    3.150861    -2.291462    -3.503812    -12.855576    -1.070156    2.220123    3.455657    -0.742374    1.747825    32.392582    -2.236135    -0.469065    -11.764350    -2.159726    19.883560    2.137197    6.576821    -38.302238    12.010405    -8.472765    7.288170    -8.946472    -11.860614    -33.455784    -8.309134    0.377611    -14.732369    0.143247    11.752749    22.748875    4.112724    7.614522    -3.171997    -7.138799    4.902767    2.516076    -6.773142    10.559934    -3.012036    6.017197    -0.824591    -3.004709    -7.640388    -1.170885    5.937762    1.537356    -0.286404    0.065431    -2.083079    -0.092771    -6.380105    1.280317    -1.642332    5.565749    0.151307    3.980581    -0.707199    -7.858374    -12.525249    -0.438337    1.334409    0.774989    
13.968572    82.554214    -77.797096    2.905685    3.154931    -2.284746    -3.503738    -12.862622    -1.072752    2.209151    3.449131    -0.744237    1.734060    32.402256    -2.221650    -0.430457    -11.779311    -2.137362    19.902805    2.149543    6.565763    -38.325176    12.884778    -8.508598    7.689725    -9.387231    -11.656115    -33.649925    -8.640355    0.098847    -14.721378    0.143200    11.739817    22.748098    4.075131    7.613740    -3.168564    -7.132826    4.918842    2.553176    -6.763584    10.554607    -3.032669    6.009313    -0.810962    -2.983228    -7.642828    -1.208012    5.915457    1.556476    -0.291977    0.066178    -2.102594    -0.093841    -6.395895    1.296442    -1.541926    5.568992    0.094077    3.841469    -0.683014    -7.836598    -12.480759    -0.397298    1.351667    0.702305    
